<?xml version="1.0" standalone="no"?>
<!DOCTYPE svg PUBLIC "-//W3C//DTD SVG 20010904//EN"
 "http://www.w3.org/TR/2001/REC-SVG-20010904/DTD/svg10.dtd">
<svg version="1.0" xmlns="http://www.w3.org/2000/svg"
 width="512.000000pt" height="512.000000pt" viewBox="0 0 512.000000 512.000000"
 preserveAspectRatio="xMidYMid meet">
<metadata>
Created by potrace 1.11, written by Peter Selinger 2001-2013
</metadata>
<g transform="translate(0.000000,512.000000) scale(0.100000,-0.100000)"
fill="#000000" stroke="none">
<path d="M2230 5104 c-742 -95 -1409 -516 -1823 -1149 -210 -321 -344 -690
-392 -1075 -20 -162 -20 -478 0 -640 92 -744 509 -1411 1140 -1826 329 -216
695 -350 1085 -399 162 -20 478 -20 640 0 748 93 1416 512 1833 1150 210 321
344 690 392 1075 20 162 20 478 0 640 -92 744 -509 1411 -1140 1826 -329 216
-695 350 -1085 399 -153 19 -501 18 -650 -1z"/>
</g>
</svg>
