<?xml version="1.0" standalone="no"?>
<!DOCTYPE svg PUBLIC "-//W3C//DTD SVG 20010904//EN"
 "http://www.w3.org/TR/2001/REC-SVG-20010904/DTD/svg10.dtd">
<svg version="1.0" xmlns="http://www.w3.org/2000/svg"
 width="512.000000pt" height="512.000000pt" viewBox="0 0 512.000000 512.000000"
 preserveAspectRatio="xMidYMid meet">
<metadata>
Created by potrace 1.11, written by Peter Selinger 2001-2013
</metadata>
<g transform="translate(0.000000,512.000000) scale(0.100000,-0.100000)"
fill="#000000" stroke="none">
<path d="M472 5100 c-218 -57 -391 -230 -452 -451 -20 -75 -20 -80 -18 -2115
l3 -2039 26 -67 c75 -192 222 -336 408 -400 l66 -23 2060 0 2060 0 67 26 c190
74 323 207 397 397 l26 67 0 2065 0 2065 -26 67 c-75 191 -224 338 -409 401
l-65 22 -2035 2 c-1977 2 -2037 1 -2108 -17z m434 -1155 c11 -7 27 -28 34 -45
15 -37 0 -36 200 -3 149 24 554 24 695 0 326 -57 537 -157 720 -341 211 -213
298 -451 298 -811 0 -184 -18 -314 -64 -449 -55 -163 -122 -273 -242 -394
-210 -214 -526 -338 -972 -382 -118 -12 -546 -15 -588 -4 -22 5 -28 1 -40 -28
-33 -75 -110 -107 -181 -73 -38 18 -70 63 -61 87 8 25 64 473 76 613 25 291
13 842 -27 1240 -19 201 -20 202 -53 210 -70 15 -112 114 -77 180 10 17 31 39
47 49 26 15 29 22 24 49 -9 50 21 99 70 114 45 13 109 8 141 -12z m3672 -21
c50 -35 71 -127 52 -234 -6 -36 -15 -137 -20 -226 -11 -215 -27 -252 -113
-261 -57 -7 -101 16 -126 66 -22 43 -41 140 -41 213 0 54 -14 68 -122 118 -92
43 -171 60 -275 60 -119 0 -180 -13 -279 -60 -144 -69 -257 -208 -299 -370
-25 -94 -23 -265 4 -351 48 -152 116 -198 486 -329 190 -67 295 -116 365 -168
141 -108 197 -244 188 -455 -4 -90 -9 -113 -36 -171 -39 -84 -114 -159 -208
-208 -209 -110 -542 -111 -705 -3 -21 14 -40 25 -43 25 -2 0 -6 -74 -7 -164
-5 -188 -12 -209 -87 -236 -37 -13 -47 -13 -84 0 -54 19 -84 64 -94 138 -9 74
4 603 17 701 20 142 61 201 140 201 85 0 113 -44 139 -215 28 -184 88 -249
250 -269 73 -9 226 9 296 35 96 36 154 115 154 212 0 56 -32 129 -75 172 -58
58 -140 98 -380 185 -358 130 -472 205 -551 365 -46 95 -64 185 -64 336 0 277
75 475 245 644 166 166 368 245 630 245 134 0 232 -22 351 -79 l81 -39 23 50
c14 30 35 57 54 69 38 23 103 25 134 3z"/>
<path d="M1270 3649 c-36 -5 -114 -16 -173 -25 l-109 -17 6 -31 c14 -78 46
-442 57 -651 18 -355 -1 -924 -37 -1124 l-7 -34 284 6 c297 6 454 22 624 66
404 103 618 359 655 783 11 127 -1 289 -29 400 -89 346 -374 566 -808 623
-121 16 -355 18 -463 4z"/>
</g>
</svg>
